@startuml

'skinparam monochrome true
skinparam packageStyle rectangle
skinparam shadowing false
skinparam linetype polyline
'skinparam linetype orto

skinparam classAttributeIconSize 0

'left to right direction

class ApplicationSession
{
    + static getInstance()
    + getCurrentSession()
}

class UserSession
{
    + getUserEmail()
}

class Employee {
    - name
    - email
    - position
    - phone
}

class Skill {
    - skillName

    + addSkill(skill: Skill)
}

class SkillRepository{
    - List<Skill> skills

    + void addSkill(skillName: String)
    + void removeSkill(skillName: String)
    + void updateSkill(skillNameOld: String, skillNameNew: String)
    + Skill getSkill(skillName: String)
}



class RegisterSkillUI {
}

class Repositories{
    - EmployeeRepository employeeRepository
    - SkillRepository skillRepository

    + EmployeeRepository getEmployeeRepository()
    + SkillRepository getSkillRepository()
}

class EmployeeRepository{
    - List<Employee> employees

    + void addEmployee(employee: Employee)
    + void removeEmployee(employee: Employee)
    + boolean addSkillToEmployee(idNumber: String, skill: Skill)
    + Employee getEmployee(idNumber: String)
}


class RegisterSkillController {
    + RegisterSkillController(employeeRepository, skillRepository)
    + updateSkill(skillNameOld: String, skillNameNew: String)
    + removeSkill(skillName: String)
}



Repositories -> Repositories : instance
ApplicationSession -> ApplicationSession : instance

RegisterSkillUI .> RegisterSkillController

RegisterSkillController .> Repositories : repositories

Repositories -> "1" SkillRepository

RegisterSkillController ..> Skill
RegisterSkillController ..> EmployeeRepository : employeeRepository
RegisterSkillController ..> SkillRepository : SkillRepository

Repositories --> "1" EmployeeRepository

EmployeeRepository --> "*" Employee
ApplicationSession --> "1" UserSession : userSession

RegisterSkillController ..> "1" Employee : employee
RegisterSkillController ..> ApplicationSession
RegisterSkillController ..> UserSession
Employee "1" --> "*" Skill : skills
Skill --> Employee : createdBy

Employee --> "*" Skill : has

@enduml
