@startuml
skinparam monochrome true
skinparam packageStyle rectangle
skinparam shadowing false
skinparam classAttributeIconSize 0
hide circle
hide methods

title Domain Model

left to right direction

class Organization {
    name
    vatNumber
    website
    phoneNumber
    email
}

class Employe {
    name
    role
    phoneNumber
    email
}

class HRM {
    ...
}

class VFM {
    ...
}

class GSM {
    ...
}

class GSU {
     name
     phoneNumber
}

class Collaborator {
    name
    birthDate
    admissionDate
    address
    phoneNumber
    email
    taxpayerNumber
    BINumber
}

class Garden {
    ...
}

class MediumSizePark {
    ...
}

class LargePark {
    ...
}

class GreenSpaces {
}

class Task {
    name
    description
    duration
    cost
}

class Agenda {
    endDate
    state
}

class Vehicle {
    plateID
    model
    type
    tare
        gross Weight
        current Km
         register Date
         acquisition Date
         maintenance/Checkup Frequency (in Kms)
         last maintenance date
         next maintenance date
}

class Machine {
    name
    description
}

class Equipment {
    name
    description
}

class Portal {
    reports
    comments
}

class CheckUp {
    plateID
    date
    kmAtCheckup
}

class Job {
    name
}

class Team {
    numberColaborators
    skils
}

class Skill {
    name
}

class ToDoList{
    Description
    Duration
}
class Entries{
.....
}
class LowUrgency{
.....
}
class MediumUrgency{
.....
}
class HighUrgency{
.....
}




Organization "1" -- "*" Employe : has
Organization "1" -- "*" GreenSpaces : owns

GSM "1" -- "*" Task : creates
GSM "1" -- "*" Entries : creates
Entries "*" -- "1" ToDoList : belongs to
Entries "*" -- "1" Agenda : belongs to
Entries "*" -- "1" LowUrgency : can be
Entries "*" -- "1" MediumUrgency : can be
Entries "*" -- "1" HighUrgency : can be

Employe "1" -- "1" GSM : can be
Employe "1" -- "1" HRM : can be
Employe "1" -- "1" VFM : can be

HRM "1" -- "*" Collaborator : creates
HRM "1" -- "*" Team : generate
HRM "1" -- "*" Job : creates
HRM "1" -- "*" Skill : creates

Collaborator "1" -- "1" Job : has
Collaborator "1" -- "1" Team : is a member of
Collaborator "1" -- "*" Skill : possesses
Collaborator "1" -- "*" Vehicle : drives
Collaborator "1" -- "*" Machine : uses
Collaborator "1" -- "*" Equipment : uses

Team "1" -- "*" Skill : has
Team "1" -- "*" Machine : utilizes
Team "1" -- "*" Equipment : utilizes
Team "1" -- "*" Agenda : assigned to


Agenda "1" -- "*" Task : has

GSU "1" -- "0.*" Portal : writes to

GreenSpaces "*" -- "*" Garden : can be
GreenSpaces "*" -- "*" MediumSizePark : can be
GreenSpaces "*" -- "*" LargePark : can be
GreenSpaces "1" -- "0.*" GSU : has

ToDoList "1" -- "1" GreenSpaces : associated with
Agenda "1" -- "1" GreenSpaces : associated with
ToDoList "1" -- "1" Agenda : associated with

VFM "1" -- "*" CheckUp: register
VFM "1" -- "*" Vehicle: manages

GSM "1" -- "1" Portal: manages and reads
GSM "1" -- "*" GreenSpaces: creats
GSM "1" -- "*" Agenda: adds

Vehicle "1" -- "*" CheckUp : undergoes

Task "1" -- "1" Team : assigned to


@enduml
