@startuml

'skinparam monochrome true
skinparam packageStyle rectangle
skinparam shadowing false
skinparam linetype polyline
skinparam linetype orto

skinparam classAttributeIconSize 0

'left to right direction

class ApplicationSession
{
    + static getInstance()
    + getCurrentSession()
}

class UserSession
{
    + getUserEmail()
}

class GreenSpace {
    - name: String
    - area: double
    - type: GreenSpaceType

    + GreenSpace(name: String, area: double, type: GreenSpaceType)
    + registerGreenSpace(greenSpaceRepository: GreenSpaceRepository): void
    + getName(): String
    + getArea(): double
    + getType(): GreenSpaceType
    {abstract} + displayDetails(): void
}

class Organization {
    - name: String
    - website: String
    - phone: String
    - email: String
    - vatNumber: String
    - List<Employee> employees
    - List<Task> tasks

    + Organization(vatNumber: String)
    + boolean employs(Employee employee)
    + Optional<Task> createTask(String reference, String description, String informalDescription, String technicalDescription, int duration, double cost, TaskCategory taskCategory, Employee employee)
    + boolean anyEmployeeHasEmail(String email)
    + boolean addEmployee(Employee employee)
    + Organization clone()
}

class OrganizationRepository {
    - List<Organization> organizations

    + Optional<Organization> getOrganizationByEmployee(Employee employee)
    + Optional<Organization> getOrganizationByEmployeeEmail(String email)
    + Optional<Organization> add(Organization organization)
}

class GreenSpaceRepository {
    - greenSpaces: List<GreenSpace>

    + addGreenSpace(greenSpace: GreenSpace): void
    + getGreenSpaces(): List<GreenSpace>
}

class RegisterGreenSpaceController {
    - greenSpaceRepository: GreenSpaceRepository

    + RegisterGreenSpaceController(greenSpaceRepository: GreenSpaceRepository)
    + registerGreenSpace(greenSpace: GreenSpace): void
    + getAllGreenSpaces(): List<GreenSpace>
}


ApplicationSession --> "1" UserSession : userSession

RegisterGreenSpaceController ..> ApplicationSession
RegisterGreenSpaceController ..> UserSession

Repositories -> Repositories : instance

RegisterGreenSpaceUI .> RegisterGreenSpaceController

RegisterGreenSpaceController .> Repositories : repositories

Repositories -> "1" GreenSpaceRepository
Repositories -> OrganizationRepository
OrganizationRepository -> Organization

Organization ..> GreenSpace : creates
RegisterGreenSpaceController ..> Organization

GreenSpace <.. GreenSpaceRepository

@enduml
