@startuml
skinparam monochrome true
skinparam packageStyle rectangle
skinparam shadowing false

'left to right direction

skinparam classAttributeIconSize 0

hide circle
hide methods

'title Domain Model

'class Platform {
'  -description
'}

class Organization {
    name
    vatNumber
    website
    phoneNumber
    email
}



class Employe {
    name
    email
    position
    phone
}
class VFM {
    ...
}

class CheckUp {
    plateID
    date
    kmAtCheckup
}

Organization "1" - "0.*" Employe : has >
Employe "1" -- "1" VFM : can be
VFM "1" -- "*" CheckUp: register


@enduml