@startuml
skinparam monochrome true
skinparam packageStyle rectangle
skinparam shadowing false

'left to right direction

skinparam classAttributeIconSize 0

hide circle
hide methods

'title Domain Model

'class Platform {
'  -description
'}

class Organization {
    name
    vatNumber
    website
    phoneNumber
    email
}

class Employe {
    name
    role
    phoneNumber
    email
}

class GSM {
    ...
}
class Garden {
    ...
}

class MediumSizePark {
    ...
}

class LargePark {
    ...
}

class GreenSpaces {
}

Organization "1" -- "*" Employe : has
Organization "1" -- "*" GreenSpaces : owns
Employe "1" -- "1" GSM : can be
GreenSpaces "*" -- "*" Garden : can be
GreenSpaces "*" -- "*" MediumSizePark : can be
GreenSpaces "*" -- "*" LargePark : can be
GSM "1" -- "*" GreenSpaces: creats


@enduml